<svg width="1200" height="900" viewBox="0 0 1200 900" fill="none" xmlns="http://www.w3.org/2000/svg">
  <defs>
    <linearGradient id="gold" x1="170" y1="80" x2="980" y2="560" gradientUnits="userSpaceOnUse">
      <stop offset="0" stop-color="#B98A3E"/>
      <stop offset="0.25" stop-color="#E5C06F"/>
      <stop offset="0.5" stop-color="#C99A45"/>
      <stop offset="0.75" stop-color="#F3DEAF"/>
      <stop offset="1" stop-color="#B37D2E"/>
    </linearGradient>
    <linearGradient id="dark" x1="620" y1="130" x2="780" y2="510" gradientUnits="userSpaceOnUse">
      <stop offset="0" stop-color="#4C4F55"/>
      <stop offset="1" stop-color="#1C2026"/>
    </linearGradient>
  </defs>
  <rect width="1200" height="900" fill="white"/>
  <text x="250" y="420" font-family="Georgia, 'Times New Roman', serif" font-size="330" font-weight="700" fill="url(#gold)" letter-spacing="-18">W</text>
  <text x="535" y="420" font-family="Georgia, 'Times New Roman', serif" font-size="330" font-weight="700" fill="url(#dark)" letter-spacing="-18">H</text>
  <path d="M490 438C660 315 820 278 968 316C834 323 710 372 595 457C548 492 498 517 444 524C468 502 475 482 490 438Z" fill="url(#gold)"/>
  <path d="M792 325C866 286 943 276 1015 293C968 309 923 334 881 366C850 390 820 401 792 399C805 388 809 360 792 325Z" fill="url(#gold)"/>
  <circle cx="1016" cy="293" r="8" fill="url(#gold)"/>
  <text x="170" y="620" font-family="Georgia, 'Times New Roman', serif" font-size="118" font-weight="400" letter-spacing="18">
    <tspan fill="url(#gold)">W</tspan>
    <tspan fill="url(#gold)">E</tspan>
    <tspan fill="url(#gold)">D</tspan>
    <tspan fill="#1F2329">H</tspan>
    <tspan fill="#1F2329">I</tspan>
    <tspan fill="#1F2329">R</tspan>
    <tspan fill="#1F2329">E</tspan>
  </text>
  <path d="M285 715H912" stroke="url(#gold)" stroke-width="3" stroke-linecap="round"/>
  <path d="M560 715C582 703 598 688 606 668C614 688 630 703 652 715" stroke="url(#gold)" stroke-width="5" stroke-linecap="round" stroke-linejoin="round"/>
  <path d="M609 658C612 645 617 635 625 628C633 635 638 645 641 658" stroke="url(#gold)" stroke-width="4" stroke-linecap="round" stroke-linejoin="round"/>
  <text x="284" y="790" font-family="Arial, Helvetica, sans-serif" font-size="34" font-weight="600" letter-spacing="14" fill="#1F2329">WEDDING &amp; LUXURY CAR HIRE</text>
</svg>
