<svg width="1600" height="560" viewBox="0 0 1600 560" fill="none" xmlns="http://www.w3.org/2000/svg">
  <defs>
    <linearGradient id="darkGrad" x1="300" y1="90" x2="700" y2="300" gradientUnits="userSpaceOnUse">
      <stop stop-color="#1B2734"/>
      <stop offset="1" stop-color="#0C121B"/>
    </linearGradient>
    <linearGradient id="blueGrad" x1="760" y1="70" x2="980" y2="300" gradientUnits="userSpaceOnUse">
      <stop stop-color="#0E6CC4"/>
      <stop offset="1" stop-color="#0C4EA2"/>
    </linearGradient>
    <linearGradient id="textDark" x1="90" y1="350" x2="560" y2="430" gradientUnits="userSpaceOnUse">
      <stop stop-color="#1B2734"/>
      <stop offset="1" stop-color="#0C121B"/>
    </linearGradient>
    <linearGradient id="textBlue" x1="690" y1="350" x2="1460" y2="420" gradientUnits="userSpaceOnUse">
      <stop stop-color="#0E6CC4"/>
      <stop offset="1" stop-color="#0C4EA2"/>
    </linearGradient>
  </defs>

  <path d="M495 88H635L748 300H680L566 144L452 300H384L495 88Z" fill="url(#darkGrad)"/>
  <path d="M742 112H858L924 244L846 284L788 176L710 300H646L742 112Z" fill="url(#darkGrad)"/>
  <path d="M1028 70H1178L1058 300H918L1028 70Z" fill="url(#blueGrad)"/>

  <path d="M861 300C894 246 930 208 972 176C1010 147 1058 125 1118 112" stroke="#0E67BE" stroke-width="20" stroke-linecap="round"/>
  <path d="M816 300C850 231 894 179 944 142C991 107 1050 82 1120 74" stroke="#0E67BE" stroke-width="14" stroke-linecap="round"/>

  <text x="110" y="475" font-size="158" font-weight="700" letter-spacing="10" fill="url(#textDark)" font-family="Poppins, Montserrat, Arial, sans-serif">WIDS</text>
  <text x="650" y="475" font-size="158" font-weight="700" letter-spacing="10" fill="url(#textBlue)" font-family="Poppins, Montserrat, Arial, sans-serif">HIRE</text>

  <line x1="250" y1="530" x2="350" y2="530" stroke="#7F8892" stroke-width="4"/>
  <line x1="1240" y1="530" x2="1340" y2="530" stroke="#7F8892" stroke-width="4"/>
  <text x="380" y="544" font-size="46" letter-spacing="7" fill="#232B35" font-family="Poppins, Montserrat, Arial, sans-serif">DRIVEN BY TRUST, POWERED BY SERVICE</text>
</svg>
